<svg class="size-full" viewBox="0 0 283 90" fill="none"
  xmlns="http://www.w3.org/2000/svg">
  <g clip-path="url(#clip0_625_2605)">
    <path d="M95.8001 78.7101C95.5001 78.7301 94.7701 78.6801 94.5301 78.6501C93.2901 78.5101 92.7801 78.3601 91.9901 77.9901C90.8201 77.4501 89.9401 76.3201 89.4701 75.3901C89.0001 74.4601 88.7201 72.8901 88.6901 71.3901V47.4401C88.6901 44.3301 88.0401 41.6101 86.7301 39.2801C85.4301 36.9501 83.6301 35.1301 81.3501 33.8301C79.0701 32.5301 76.4501 31.8701 73.4901 31.8701C70.1301 31.8701 67.2001 32.6701 64.6901 34.2801C63.1901 35.2401 61.9001 36.5201 60.8201 38.1101C60.8101 38.0901 60.8001 38.0601 60.7801 38.0401C59.9301 36.6601 58.7701 35.4701 57.2801 34.4701C54.7001 32.7401 51.7001 31.8801 48.2901 31.8801C45.0801 31.8801 42.3201 32.6301 40.0201 34.1401C38.6301 35.0501 37.5601 36.2601 36.7901 37.7601V32.7801H27.0801V73.8401H37.5401V49.8501C37.5401 48.2501 37.8301 46.8701 38.4001 45.7101C38.9801 44.5601 39.8001 43.6501 40.8801 43.0001C41.9601 42.3501 43.2201 42.0201 44.6801 42.0201C46.1401 42.0201 47.4601 42.3501 48.5201 43.0001C49.5701 43.6501 50.3901 44.5501 50.9601 45.7101C51.5401 46.8601 51.8201 48.2401 51.8201 49.8501V73.8401H63.1001V49.8501C63.1001 48.2501 63.3901 46.8701 63.9601 45.7101C64.5401 44.5601 65.3601 43.6501 66.4401 43.0001C67.5201 42.3501 68.7801 42.0201 70.2401 42.0201C71.7001 42.0201 73.0201 42.3501 74.0801 43.0001C75.1301 43.6501 75.9501 44.5501 76.5201 45.7101C77.0701 46.8001 77.3501 48.1101 77.3701 49.6101V73.5601C77.3701 76.6701 78.0201 79.3901 79.3301 81.7201C80.6301 84.0501 82.4301 85.8701 84.7101 87.1701C86.9901 88.4701 89.4701 89.3301 92.5701 89.5601C93.8701 89.6601 95.4501 89.7201 96.6201 89.6801V78.6301C96.3601 78.6701 96.2301 78.6901 95.7701 78.7101H95.8001Z" fill="white"/>
    <path d="M24.5701 63.76C10.5901 63.76 0.640137 53.95 0.640137 38.97C0.640137 16.99 17.0901 0 35.9201 0C49.6501 0 59.9401 9.37 59.9401 24.87C59.9401 46.06 44.3101 63.76 24.5701 63.76ZM35.8701 3.44C24.2001 3.44 13.9901 24.94 13.9901 42.19C13.9901 50.94 16.9201 59.99 25.5601 59.99C42.1201 59.99 49.6201 39.1 49.6201 21.14C49.6201 10.89 44.4201 3.43 35.8701 3.43V3.44Z" fill="#FBC2AE"/>
    <mask id="mask0_625_2605" style="mask-type:luminance" maskUnits="userSpaceOnUse" x="43" y="31" width="17" height="20">
      <path d="M59.4303 35.4901C58.8403 34.9201 58.2403 34.4401 57.6003 34.0001C54.9403 32.2201 51.8103 31.3101 48.3003 31.3101C47.8603 31.3101 47.3903 31.3301 46.8603 31.3701L46.3503 31.8301C45.7703 35.3501 44.9203 38.7201 43.8203 41.8501L44.3603 42.5901C44.4203 42.5901 44.4703 42.5901 44.5303 42.5801C44.5803 42.5801 44.6303 42.5801 44.6903 42.5801C46.0803 42.5801 47.2703 42.8801 48.2303 43.4701C49.1903 44.0601 49.9403 44.9001 50.4703 45.9501C51.0003 47.0201 51.2803 48.3301 51.2803 49.8401V50.2001L52.2703 50.5401C55.6503 46.2701 58.1103 41.3901 59.5803 36.0301L59.4303 35.4901Z" fill="white"/>
    </mask>
    <g mask="url(#mask0_625_2605)">
      <path d="M24.5701 63.76C10.5901 63.76 0.640137 53.95 0.640137 38.97C0.640137 16.99 17.0901 0 35.9201 0C49.6501 0 59.9401 9.37 59.9401 24.87C59.9401 46.06 44.3101 63.76 24.5701 63.76ZM35.8701 3.44C24.2001 3.44 13.9901 24.94 13.9901 42.19C13.9901 50.94 16.9201 59.99 25.5601 59.99C42.1201 59.99 49.6201 39.1 49.6201 21.14C49.6201 10.89 44.4201 3.43 35.8701 3.43V3.44Z" fill="#FBC2AE"/>
      <path d="M95.8001 78.7101C95.5001 78.7301 94.7701 78.6801 94.5301 78.6501C93.2901 78.5101 92.7801 78.3601 91.9901 77.9901C90.8201 77.4501 89.9401 76.3201 89.4701 75.3901C89.0001 74.4601 88.7201 72.8901 88.6901 71.3901V47.4401C88.6901 44.3301 88.0401 41.6101 86.7301 39.2801C85.4301 36.9501 83.6301 35.1301 81.3501 33.8301C79.0701 32.5301 76.4501 31.8701 73.4901 31.8701C70.1301 31.8701 67.2001 32.6701 64.6901 34.2801C63.1901 35.2401 61.9001 36.5201 60.8201 38.1101C60.8101 38.0901 60.8001 38.0601 60.7801 38.0401C59.9301 36.6601 58.7701 35.4701 57.2801 34.4701C54.7001 32.7401 51.7001 31.8801 48.2901 31.8801C45.0801 31.8801 42.3201 32.6301 40.0201 34.1401C38.6301 35.0501 37.5601 36.2601 36.7901 37.7601V32.7801H27.0801V73.8401H37.5401V49.8501C37.5401 48.2501 37.8301 46.8701 38.4001 45.7101C38.9801 44.5601 39.8001 43.6501 40.8801 43.0001C41.9601 42.3501 43.2201 42.0201 44.6801 42.0201C46.1401 42.0201 47.4601 42.3501 48.5201 43.0001C49.5701 43.6501 50.3901 44.5501 50.9601 45.7101C51.5401 46.8601 51.8201 48.2401 51.8201 49.8501V73.8401H63.1001V49.8501C63.1001 48.2501 63.3901 46.8701 63.9601 45.7101C64.5401 44.5601 65.3601 43.6501 66.4401 43.0001C67.5201 42.3501 68.7801 42.0201 70.2401 42.0201C71.7001 42.0201 73.0201 42.3501 74.0801 43.0001C75.1301 43.6501 75.9501 44.5501 76.5201 45.7101C77.0701 46.8001 77.3501 48.1101 77.3701 49.6101V73.5601C77.3701 76.6701 78.0201 79.3901 79.3301 81.7201C80.6301 84.0501 82.4301 85.8701 84.7101 87.1701C86.9901 88.4701 89.4701 89.3301 92.5701 89.5601C93.8701 89.6601 95.4501 89.7201 96.6201 89.6801V78.6301C96.3601 78.6701 96.2301 78.6901 95.7701 78.7101H95.8001Z" fill="white"/>
    </g>
    <path d="M111.98 54.5799C110.43 54.5799 108.97 54.2999 107.61 53.7399C106.25 53.1799 105.07 52.3899 104.06 51.3599C103.05 50.3299 102.26 49.1299 101.68 47.7499C101.1 46.3699 100.83 44.8499 100.83 43.2199C100.83 41.5899 101.11 40.0499 101.68 38.6799C102.25 37.2999 103.04 36.0999 104.06 35.0799C105.08 34.0599 106.25 33.2699 107.6 32.7199C108.95 32.1699 110.41 31.8899 111.98 31.8899C113.55 31.8899 115.01 32.1699 116.36 32.7299C117.71 33.2899 118.89 34.0799 119.9 35.0899C120.91 36.0999 121.71 37.2999 122.29 38.6699C122.87 40.0499 123.16 41.5599 123.16 43.2099C123.16 44.8599 122.87 46.3499 122.29 47.7399C121.71 49.1299 120.91 50.3299 119.9 51.3499C118.89 52.3699 117.71 53.1599 116.36 53.7299C115.01 54.2899 113.55 54.5699 111.98 54.5699V54.5799ZM111.98 51.8999C113.2 51.8999 114.31 51.6799 115.31 51.2399C116.31 50.7999 117.18 50.1799 117.92 49.3799C118.66 48.5799 119.23 47.6599 119.63 46.6099C120.03 45.5599 120.24 44.4299 120.24 43.2299C120.24 42.0299 120.04 40.9099 119.63 39.8699C119.23 38.8299 118.66 37.9099 117.92 37.1099C117.18 36.3099 116.31 35.6899 115.31 35.2499C114.31 34.8099 113.2 34.5899 111.98 34.5899C110.76 34.5899 109.68 34.8099 108.68 35.2499C107.68 35.6899 106.81 36.3099 106.07 37.1099C105.33 37.9099 104.76 38.8299 104.34 39.8699C103.93 40.9099 103.72 42.0299 103.72 43.2299C103.72 44.4299 103.93 45.5599 104.34 46.6099C104.75 47.6599 105.33 48.5899 106.07 49.3799C106.81 50.1799 107.68 50.7999 108.68 51.2399C109.68 51.6799 110.78 51.8999 111.98 51.8999Z" fill="white"/>
    <path d="M125.29 54.2199V38.3199H127.97V41.2399L127.68 40.8299C128.05 39.9299 128.62 39.2499 129.39 38.8099C130.16 38.3699 131.09 38.1499 132.19 38.1499H133.16V40.7499H131.77C130.65 40.7499 129.74 41.0999 129.06 41.7999C128.37 42.4999 128.03 43.4899 128.03 44.7599V54.2299H125.29V54.2199Z" fill="white"/>
    <path d="M141.66 54.5799C140.17 54.5799 138.82 54.2199 137.63 53.4899C136.44 52.7599 135.5 51.7699 134.81 50.5099C134.12 49.2499 133.78 47.8499 133.78 46.2899C133.78 44.7299 134.12 43.2799 134.81 42.0299C135.5 40.7799 136.44 39.7899 137.63 39.0699C138.82 38.3399 140.16 37.9799 141.66 37.9799C142.98 37.9799 144.15 38.2599 145.17 38.8199C146.19 39.3799 147 40.1299 147.59 41.0799L147.15 41.7599V31.9099H149.92V54.2399H147.24V50.8499L147.59 51.3199C147.04 52.3599 146.24 53.1699 145.19 53.7399C144.14 54.3099 142.96 54.5899 141.66 54.5899V54.5799ZM141.9 51.9299C142.9 51.9299 143.8 51.6799 144.58 51.1899C145.37 50.6999 145.99 50.0199 146.45 49.1699C146.91 48.3199 147.14 47.3599 147.14 46.2899C147.14 45.2199 146.91 44.2399 146.45 43.3799C145.99 42.5199 145.36 41.8499 144.58 41.3599C143.79 40.8699 142.9 40.6199 141.9 40.6199C140.9 40.6199 140.03 40.8699 139.23 41.3699C138.43 41.8699 137.81 42.5399 137.36 43.3799C136.91 44.2199 136.68 45.1799 136.68 46.2899C136.68 47.3999 136.91 48.3099 137.36 49.1699C137.81 50.0299 138.43 50.6999 139.22 51.1899C140.01 51.6799 140.9 51.9299 141.9 51.9299Z" fill="white"/>
    <path d="M160 54.58C158.47 54.58 157.1 54.22 155.9 53.49C154.7 52.76 153.76 51.76 153.07 50.5C152.38 49.24 152.04 47.81 152.04 46.24C152.04 44.67 152.38 43.23 153.06 41.99C153.74 40.75 154.66 39.77 155.83 39.05C157 38.33 158.31 37.97 159.77 37.97C160.95 37.97 162 38.18 162.91 38.6C163.82 39.02 164.6 39.59 165.24 40.31C165.88 41.03 166.37 41.84 166.71 42.76C167.05 43.68 167.23 44.62 167.23 45.61C167.23 45.83 167.22 46.07 167.19 46.33C167.16 46.6 167.13 46.85 167.09 47.08H154.05V44.72H165.5L164.2 45.78C164.38 44.76 164.28 43.84 163.91 43.04C163.54 42.23 162.99 41.59 162.26 41.12C161.53 40.65 160.71 40.41 159.78 40.41C158.85 40.41 158.01 40.65 157.24 41.12C156.47 41.59 155.88 42.27 155.46 43.14C155.04 44.01 154.87 45.05 154.94 46.25C154.86 47.41 155.04 48.43 155.49 49.3C155.94 50.17 156.56 50.85 157.38 51.34C158.2 51.82 159.09 52.06 160.05 52.06C161.11 52.06 162.01 51.81 162.73 51.32C163.46 50.83 164.05 50.2 164.5 49.43L166.8 50.61C166.49 51.34 166 52 165.34 52.6C164.68 53.2 163.9 53.68 163.01 54.03C162.11 54.38 161.12 54.56 160.02 54.56L160 54.58Z" fill="white"/>
    <path d="M169.47 54.2199V38.3199H172.15V41.2399L171.86 40.8299C172.23 39.9299 172.8 39.2499 173.57 38.8099C174.34 38.3699 175.27 38.1499 176.37 38.1499H177.34V40.7499H175.95C174.83 40.7499 173.92 41.0999 173.24 41.7999C172.55 42.4999 172.21 43.4899 172.21 44.7599V54.2299H169.47V54.2199Z" fill="white"/>
    <path d="M179.8 54.2199V31.8899H182.54V54.2199H179.8Z" fill="white"/>
    <path d="M187.05 60.7101C186.7 60.7101 186.34 60.6801 185.99 60.6201C185.64 60.5601 185.3 60.4601 184.99 60.3201V57.8701C185.21 57.9101 185.48 57.9501 185.8 58.0001C186.12 58.0501 186.44 58.0701 186.76 58.0701C187.68 58.0701 188.39 57.8701 188.87 57.4701C189.35 57.0701 189.81 56.3701 190.24 55.3901L191.24 53.0001L191.18 55.3901L184.4 38.3101H187.38L192.66 51.8801H191.78L197.03 38.3101H200.07L192.9 56.1001C192.57 56.9501 192.14 57.7201 191.62 58.4201C191.1 59.1201 190.46 59.6701 189.72 60.0901C188.98 60.5101 188.09 60.7101 187.07 60.7101H187.05Z" fill="white"/>
    <path d="M202.33 54.22V32.24H206.75L214.98 43.15H212.91L220.9 32.24H225.32V54.22H220.75V37.29L222.58 37.7L214.11 48.61H213.52L205.35 37.7L206.88 37.29V54.22H202.31H202.33Z" fill="white"/>
    <path d="M235.93 54.58C234.22 54.58 232.73 54.2 231.48 53.45C230.23 52.7 229.25 51.68 228.56 50.4C227.87 49.12 227.53 47.71 227.53 46.15C227.53 44.59 227.89 43.1 228.61 41.84C229.33 40.58 230.3 39.59 231.52 38.86C232.74 38.13 234.12 37.77 235.65 37.77C236.93 37.77 238.06 37.97 239.04 38.38C240.02 38.79 240.85 39.35 241.53 40.08C242.21 40.81 242.72 41.65 243.08 42.6C243.43 43.55 243.61 44.59 243.61 45.71C243.61 46.02 243.6 46.33 243.57 46.64C243.54 46.95 243.49 47.21 243.41 47.42H231.35V44.17H240.91L238.82 45.7C239.02 44.85 239.01 44.1 238.79 43.44C238.57 42.78 238.2 42.26 237.65 41.88C237.1 41.5 236.44 41.3 235.66 41.3C234.88 41.3 234.23 41.49 233.68 41.86C233.13 42.23 232.72 42.78 232.44 43.51C232.16 44.24 232.06 45.12 232.12 46.17C232.04 47.07 232.15 47.87 232.44 48.56C232.73 49.25 233.19 49.78 233.8 50.17C234.41 50.55 235.15 50.75 236.01 50.75C236.8 50.75 237.47 50.59 238.03 50.28C238.59 49.97 239.03 49.53 239.34 48.98L242.88 50.66C242.56 51.45 242.07 52.13 241.39 52.73C240.71 53.32 239.91 53.78 238.99 54.1C238.07 54.42 237.05 54.59 235.95 54.59L235.93 54.58Z" fill="white"/>
    <path d="M253.78 54.5799C252.21 54.5799 250.8 54.2099 249.56 53.4599C248.32 52.7099 247.34 51.6999 246.62 50.4199C245.9 49.1399 245.54 47.7299 245.54 46.1699C245.54 44.6099 245.9 43.1799 246.63 41.9099C247.36 40.6399 248.34 39.6299 249.58 38.8899C250.82 38.1399 252.2 37.7699 253.74 37.7699C254.92 37.7699 255.97 37.9899 256.88 38.4299C257.79 38.8699 258.52 39.4999 259.05 40.2999L258.37 41.1799V31.8899H262.79V54.2199H258.66V51.2699L259.07 52.1899C258.52 52.9799 257.77 53.5699 256.83 53.9699C255.89 54.3699 254.86 54.5699 253.76 54.5699L253.78 54.5799ZM254.31 50.5999C255.12 50.5999 255.82 50.4099 256.43 50.0399C257.04 49.6699 257.52 49.1499 257.86 48.4799C258.2 47.8099 258.38 47.0399 258.38 46.1799C258.38 45.3199 258.21 44.5499 257.86 43.8799C257.52 43.2099 257.04 42.6899 256.43 42.3199C255.82 41.9499 255.11 41.7599 254.31 41.7599C253.51 41.7599 252.78 41.9499 252.14 42.3399C251.5 42.7199 251 43.2499 250.65 43.8999C250.3 44.5599 250.12 45.3199 250.12 46.1899C250.12 47.0599 250.3 47.8199 250.65 48.4899C251 49.1599 251.5 49.6799 252.14 50.0499C252.78 50.4199 253.5 50.6099 254.31 50.6099V50.5999Z" fill="white"/>
    <path d="M271.62 54.5801C269.85 54.5801 268.31 54.1601 267 53.3301C265.69 52.5001 264.8 51.3701 264.33 49.9501L267.57 48.4201C267.98 49.2901 268.54 49.9601 269.25 50.4601C269.96 50.9601 270.74 51.2001 271.61 51.2001C272.24 51.2001 272.72 51.0701 273.06 50.8201C273.39 50.5701 273.56 50.2101 273.56 49.7601C273.56 49.5201 273.5 49.3201 273.38 49.1601C273.26 48.9901 273.08 48.8401 272.85 48.7001C272.61 48.5601 272.32 48.4501 271.97 48.3501L269.23 47.5801C267.91 47.2101 266.9 46.6001 266.19 45.7701C265.48 44.9301 265.13 43.9501 265.13 42.8101C265.13 41.8101 265.39 40.9301 265.9 40.1901C266.41 39.4401 267.13 38.8601 268.05 38.4401C268.97 38.0201 270.04 37.8101 271.24 37.8101C272.81 37.8101 274.19 38.1801 275.38 38.9201C276.57 39.6601 277.41 40.7001 277.9 42.0301L274.63 43.5601C274.39 42.8901 273.97 42.3601 273.35 41.9501C272.73 41.5501 272.03 41.3501 271.24 41.3501C270.67 41.3501 270.22 41.4701 269.9 41.7001C269.58 41.9401 269.41 42.2601 269.41 42.6701C269.41 42.8901 269.47 43.0801 269.59 43.2601C269.71 43.4401 269.9 43.5901 270.17 43.7301C270.44 43.8701 270.76 44.0001 271.16 44.1101L273.73 44.8801C275.07 45.2701 276.09 45.8701 276.8 46.6601C277.51 47.4601 277.86 48.4401 277.86 49.6001C277.86 50.6001 277.6 51.4801 277.08 52.2201C276.56 52.9701 275.84 53.5501 274.91 53.9701C273.99 54.3901 272.89 54.6001 271.64 54.6001L271.62 54.5801Z" fill="white"/>
    <path d="M113.29 38.9399H110.63V47.6199H113.29V38.9399Z" fill="#FBC2AE"/>
    <path d="M116.3 44.5999V41.9399H107.62V44.5999H116.3Z" fill="#FBC2AE"/>
    <path d="M279.23 40.3301V38.7001H278.72V38.3501H280.12V38.7001H279.62V40.3301H279.23ZM280.33 40.3301V38.3501H280.7L281.44 39.3501H281.26L281.99 38.3501H282.36V40.3301H281.97V38.7801L282.12 38.8201L281.36 39.8101H281.31L280.57 38.8201L280.7 38.7801V40.3301H280.31H280.33Z" fill="white"/>
  </g>
  <defs>
    <clipPath id="clip0_625_2605">
      <rect width="281.72" height="89.69" fill="white" transform="translate(0.640137)"/>
    </clipPath>
  </defs>
</svg>